<svg version="1.1" xmlns="http://www.w3.org/2000/svg" viewBox="-5157.562816523387 -868.2 10157.887816523385 2085.6"><desc>Created with Snap</desc><defs></defs><g><g><g transform="matrix(1,0,0,-1,0,0)"><path d="M547 177L553 186L553 174Q556 179 556 185Q557 191 556 196Q562 204 563 212Q564 221 566 230Q571 233 570 234Q570 235 570 240Q570 243 571 244Q573 246 575 247Q577 249 578 251Q580 253 580 259Q580 270 578 279Q576 289 578 300Q582 302 584 304Q586 307 591 308Q593 315 596 322Q599 330 605 335Q606 337 606 342Q606 347 607 350Q609 355 612 360Q615 366 617 372Q620 380 622 389Q625 398 629 406Q639 427 648 449Q657 471 653 494Q658 496 665 506Q673 516 677 521Q676 526 678 532Q693 542 703 540Q714 539 722 542Q729 537 734 531Q739 525 746 521Q748 510 748 499Q749 488 751 477Q748 473 744 470Q741 467 737 464Q737 460 733 448Q730 437 725 424Q720 412 715 401Q710 390 707 387Q708 376 705 371Q702 366 695 358Q693 338 683 326Q683 309 674 296Q665 284 666 272Q666 258 662 248Q658 239 653 230Q648 222 645 212Q642 202 644 188Q640 182 636 181Q636 164 631 148Q627 132 624 115Q623 110 620 107Q618 104 615 100Q620 92 616 83Q612 75 612 66Q612 63 616 60Q620 58 620 53Q620 48 615 34Q611 21 609 16Q604 15 593 10Q583 6 583 -1Q577 -4 573 -4Q570 -4 566 -9Q558 -4 551 -3Q545 -1 537 1Q534 11 530 20Q526 29 524 39Q518 51 516 54Q514 57 500 63L500 83Q491 95 486 107Q481 119 468 129Q469 136 467 141Q465 147 462 152Q459 157 456 162Q454 167 454 175L444 180Q440 187 440 190Q441 193 433 197Q433 203 432 207Q432 212 427 216Q427 224 424 228Q422 232 419 237Q416 243 413 247Q410 252 409 253Q407 257 400 259Q396 276 388 286Q380 296 370 309Q361 305 357 303Q354 301 354 299Q354 297 355 294Q356 292 356 286Q348 277 348 274Q349 271 349 268Q347 266 344 264Q341 263 344 259Q341 256 339 254Q338 253 339 248Q337 246 334 244Q331 243 328 241Q321 236 322 228Q324 220 317 212L317 200Q317 197 315 195Q313 193 311 191Q307 188 304 180Q302 173 300 168Q294 155 292 142Q290 129 288 115Q286 109 282 104Q278 100 278 93Q278 90 279 87Q281 84 281 81Q281 75 278 71Q276 68 273 64Q271 61 269 56Q267 52 268 44Q263 40 258 36Q254 33 249 31Q250 23 246 18Q242 14 241 6Q232 6 224 6Q217 6 209 3Q200 13 195 24Q189 27 188 32Q187 37 180 41Q182 46 182 48Q182 51 180 56Q173 64 165 70Q158 76 150 83Q156 91 158 96Q152 107 146 117Q141 128 129 136Q127 154 118 169Q109 184 109 202Q104 213 100 224Q96 235 92 246Q91 250 87 251Q83 253 80 255Q80 265 78 267Q76 270 70 278Q70 300 53 316Q54 324 50 328Q47 332 50 339Q45 347 42 357Q39 367 41 377Q36 379 35 382Q35 386 35 390Q35 391 32 397Q30 403 27 409Q24 416 21 421Q19 427 18 429Q12 439 2 445Q2 457 0 469Q-2 482 -10 492Q-9 511 0 522Q9 534 26 542Q39 537 49 530Q59 524 72 522Q74 515 76 509Q79 503 78 496Q83 488 85 480Q87 473 95 467Q94 458 96 451Q99 444 102 437Q105 431 107 426Q110 421 110 417Q109 408 111 403Q114 399 117 391Q119 386 119 381Q120 377 122 372Q124 364 128 358Q132 352 136 345Q142 336 144 325Q146 314 151 304Q156 292 163 279Q170 267 170 254Q170 252 173 248Q177 245 179 243Q183 238 183 236Q183 235 185 230Q192 216 195 207Q203 200 205 190Q208 181 216 175Q222 183 228 200Q234 218 234 229Q239 233 241 238Q243 244 244 251Q253 256 254 265Q256 274 260 283Q266 285 269 296Q272 307 275 312Q285 328 290 340Q296 352 297 368Q305 373 307 375Q309 384 312 393Q315 402 322 408Q322 414 321 423Q320 432 319 442Q319 452 320 460Q322 468 326 472Q331 476 331 476Q332 476 335 483Q340 483 344 484Q349 485 353 483Q360 488 363 491Q366 494 375 496Q377 485 381 483Q385 482 394 480Q400 473 402 467Q404 462 413 457Q410 448 412 440Q415 432 418 422Q422 412 425 403Q428 394 429 392Q434 381 444 377Q441 369 442 365Q444 362 446 358Q449 355 451 351Q453 347 451 339Q452 334 455 331Q459 329 463 326Q464 319 467 309Q470 300 474 291Q479 282 485 275Q492 268 500 265Q500 244 519 236Q521 227 525 211Q530 195 536 187Q538 185 541 182Q544 180 547 177ZM938 49Q936 46 934 43Q932 41 931 38Q925 36 921 33Q917 31 910 31Q897 18 883 11Q877 16 869 17Q862 19 854 18Q854 19 851 22Q848 26 844 29Q841 33 838 36Q835 40 834 40Q834 52 831 64Q829 76 829 87Q829 95 832 103Q835 111 835 119Q835 128 834 137Q834 146 834 155Q834 159 835 162Q836 165 836 169Q836 174 833 178Q831 183 831 188Q831 193 832 197Q834 201 834 206Q834 213 829 218Q830 223 832 226Q834 229 836 234Q829 254 834 270Q839 286 839 306Q839 310 837 312Q835 315 834 319Q839 326 836 330Q833 335 831 340Q834 343 834 351Q834 359 834 363Q835 368 833 370Q832 372 831 377Q836 383 832 395Q829 407 829 415Q829 419 829 426Q830 434 830 442Q830 450 830 457Q830 464 829 468Q827 471 825 474Q823 477 823 481Q823 486 825 492Q827 498 826 503Q831 506 833 507Q835 508 841 506Q843 513 848 520Q853 527 861 527Q865 527 868 524Q871 521 874 519Q877 517 880 516Q883 516 886 521Q892 519 895 514Q898 510 906 509Q908 502 912 495Q916 489 916 482Q916 477 914 472Q913 468 913 463Q913 460 914 457Q916 454 916 450Q916 444 914 438Q913 432 913 425Q913 419 916 415Q919 412 919 407Q919 399 918 397Q918 395 923 388Q924 383 922 380Q921 377 921 374Q921 369 923 366Q926 363 926 360Q926 357 924 354Q923 351 923 348Q923 323 926 301Q927 295 929 289Q931 284 931 279Q931 273 929 267Q928 262 928 256Q928 244 929 232Q931 221 929 209Q931 204 931 199Q931 195 936 193Q934 188 931 186Q929 184 931 177Q929 169 933 165Q937 161 937 157Q937 156 934 154Q931 153 931 148Q931 144 933 141Q936 139 936 135Q936 130 935 125Q934 120 934 115Q934 104 937 92Q940 80 930 70Q935 65 934 59Q933 53 938 49ZM1477 218Q1472 196 1474 174Q1477 152 1472 131Q1470 118 1462 107Q1455 96 1457 82Q1454 81 1449 77Q1445 73 1440 68Q1436 63 1432 58Q1429 54 1428 51Q1413 39 1402 30Q1392 21 1382 11Q1374 12 1366 11Q1359 10 1354 2Q1345 4 1336 1Q1328 -1 1318 -1Q1314 -1 1311 1Q1308 4 1303 4Q1300 4 1297 2Q1294 1 1291 1Q1286 1 1280 2Q1274 3 1269 3Q1267 3 1261 1Q1255 -1 1248 -4Q1242 -6 1236 -9Q1231 -12 1230 -13Q1218 -8 1207 -3Q1196 2 1183 -1Q1171 10 1158 11Q1146 12 1132 14Q1128 14 1127 17Q1127 21 1127 24Q1113 22 1105 23Q1097 25 1091 29Q1086 34 1080 40Q1075 46 1066 52Q1068 58 1066 62Q1065 67 1062 71Q1059 76 1056 80Q1054 85 1055 93Q1048 106 1033 114Q1032 119 1030 122Q1028 125 1028 132Q1028 138 1024 139Q1020 141 1020 144Q1025 153 1032 159Q1040 165 1044 174Q1052 171 1055 172Q1058 174 1066 168Q1068 166 1073 163Q1079 160 1086 156Q1093 152 1099 149Q1105 146 1107 145Q1109 133 1116 127Q1124 121 1128 110Q1133 108 1136 106Q1139 105 1146 107Q1148 103 1152 101Q1156 99 1158 95Q1173 97 1181 93Q1189 89 1202 88Q1204 85 1206 82Q1208 80 1210 78Q1224 79 1240 78Q1257 77 1270 84Q1275 79 1280 81Q1285 83 1290 83Q1295 83 1299 80Q1304 78 1309 78Q1314 78 1318 79Q1323 80 1328 80Q1334 80 1334 85Q1335 90 1339 90Q1347 90 1355 97Q1364 104 1370 109Q1375 109 1376 112Q1378 116 1385 118Q1396 129 1396 142Q1397 155 1391 168Q1391 173 1394 177Q1398 182 1398 187Q1398 197 1391 207Q1384 217 1379 226Q1377 229 1375 229Q1373 230 1370 231Q1368 236 1366 236Q1365 237 1360 238Q1357 241 1351 245Q1345 249 1341 249Q1326 249 1325 252Q1325 255 1311 255Q1299 255 1287 250Q1284 252 1278 254Q1272 256 1265 256Q1259 257 1253 256Q1248 255 1245 252Q1243 254 1237 257Q1231 261 1229 261Q1198 261 1172 268Q1147 276 1121 276Q1108 282 1105 284Q1102 286 1096 286Q1091 292 1087 297Q1084 303 1078 307Q1078 316 1074 323Q1071 330 1066 336Q1062 342 1058 348Q1055 355 1055 364Q1048 376 1040 384Q1037 405 1040 431Q1043 458 1060 473L1060 489Q1070 489 1076 492Q1083 496 1088 501Q1094 506 1099 511Q1105 516 1113 519Q1118 521 1120 525Q1122 529 1124 534Q1146 532 1168 538Q1190 545 1212 549Q1217 550 1220 554Q1223 558 1227 561Q1234 560 1239 557Q1245 555 1251 554Q1256 552 1260 553Q1264 555 1269 555Q1274 555 1280 549Q1296 550 1304 544Q1312 538 1320 539Q1326 531 1336 527Q1346 523 1356 523Q1357 518 1361 516Q1365 514 1366 509Q1379 507 1385 498Q1392 490 1404 487Q1406 482 1408 479Q1411 477 1413 472Q1420 473 1421 471Q1423 469 1428 467Q1435 453 1440 435Q1435 427 1431 418Q1427 410 1419 405Q1393 405 1376 415Q1359 425 1342 444Q1337 446 1329 446Q1321 447 1318 450Q1308 459 1303 458Q1299 458 1294 460Q1283 462 1272 467Q1261 472 1249 472Q1243 472 1238 470Q1234 468 1229 467Q1224 466 1220 467Q1217 468 1212 468Q1204 468 1201 465Q1199 462 1197 462Q1184 462 1175 458Q1167 454 1161 452Q1157 450 1154 447Q1151 445 1150 440Q1139 438 1135 431Q1131 425 1123 422Q1120 417 1125 412Q1121 406 1123 402Q1125 399 1128 395Q1132 392 1136 387Q1140 383 1140 375Q1140 368 1146 366Q1153 365 1157 361Q1162 357 1170 352Q1178 348 1183 348Q1186 348 1188 349Q1191 350 1194 350Q1201 350 1206 347Q1212 345 1218 345Q1221 345 1224 345Q1227 346 1230 346Q1241 346 1249 342Q1258 339 1270 346Q1283 339 1292 340Q1302 341 1308 337Q1311 335 1313 333Q1316 331 1319 331Q1322 331 1324 332Q1327 333 1329 333Q1333 333 1337 331Q1341 329 1344 334Q1350 327 1359 328Q1368 329 1376 328Q1379 323 1380 321Q1381 320 1380 313Q1389 314 1394 312Q1399 311 1402 308Q1406 305 1409 302Q1413 300 1419 299Q1422 290 1427 283Q1433 276 1443 274Q1446 266 1452 259Q1458 253 1465 248Q1466 231 1477 218ZM2001 487Q1995 482 1988 472Q1982 462 1976 460Q1974 459 1971 459Q1968 460 1965 460Q1960 460 1958 458Q1956 456 1952 455Q1945 459 1938 460Q1931 461 1924 465Q1918 465 1915 462Q1912 459 1907 459Q1902 459 1897 461Q1893 463 1889 458Q1870 464 1850 466Q1831 469 1812 474Q1804 470 1796 470Q1789 471 1781 469Q1778 468 1775 466Q1772 465 1769 465Q1765 465 1762 466Q1759 467 1755 467Q1749 467 1743 464Q1737 462 1731 462Q1726 462 1723 464Q1720 467 1715 462Q1712 467 1708 464Q1705 462 1702 460Q1686 460 1680 461Q1675 463 1668 462Q1668 455 1668 442Q1668 429 1668 415Q1669 402 1669 390Q1669 379 1668 375Q1671 368 1678 368Q1686 368 1691 368Q1705 362 1719 361Q1734 361 1748 361Q1753 361 1756 362Q1760 363 1765 363Q1769 363 1777 361Q1786 360 1794 359Q1803 359 1809 361Q1816 363 1816 371Q1827 373 1831 367Q1836 361 1841 361Q1846 361 1848 365Q1850 369 1854 371Q1858 371 1859 367Q1860 364 1867 364Q1873 364 1880 368Q1888 373 1896 363Q1903 361 1906 363Q1909 365 1915 366Q1922 354 1931 343Q1940 333 1945 320Q1942 320 1938 317Q1934 314 1931 309Q1928 305 1926 301Q1924 297 1925 294Q1919 289 1912 284Q1906 280 1898 280Q1890 280 1888 283Q1887 286 1882 286Q1877 286 1873 284Q1870 283 1866 283Q1861 283 1855 284Q1850 286 1844 286Q1837 286 1830 283Q1824 281 1817 281Q1812 281 1808 283Q1805 285 1801 286Q1794 287 1788 287Q1782 288 1775 288Q1770 288 1766 285Q1763 283 1758 283Q1753 283 1747 284Q1742 286 1737 286Q1733 286 1730 285Q1727 284 1724 284Q1706 282 1695 280Q1684 279 1673 276Q1674 265 1674 254Q1675 243 1680 233Q1680 230 1677 229Q1675 228 1675 223Q1683 213 1684 201Q1686 190 1685 178Q1684 166 1683 154Q1682 142 1687 130Q1684 122 1682 115Q1681 109 1682 101Q1689 91 1700 91Q1705 91 1709 91Q1713 92 1718 92Q1722 92 1725 91Q1728 90 1732 90Q1744 90 1756 91Q1768 93 1780 93Q1784 93 1787 92Q1791 92 1795 92Q1802 92 1808 93Q1815 95 1822 95Q1827 95 1831 93Q1835 92 1840 92Q1849 92 1857 95Q1866 98 1875 98Q1877 98 1880 97Q1883 97 1885 97Q1890 97 1892 101Q1894 106 1896 107Q1901 108 1906 109Q1911 110 1916 111Q1920 112 1922 108Q1925 105 1926 102Q1935 101 1940 96Q1946 91 1954 90Q1956 85 1959 81Q1962 78 1967 78Q1965 70 1969 61Q1963 59 1958 54Q1954 49 1949 47Q1950 41 1951 35Q1952 30 1951 23Q1949 21 1945 21Q1942 22 1939 22Q1932 22 1930 17Q1929 13 1924 13Q1921 15 1916 15Q1911 15 1906 15Q1901 15 1896 15Q1892 15 1889 17Q1883 17 1879 14Q1875 12 1871 8Q1861 12 1852 9Q1844 6 1836 1Q1832 5 1828 5Q1825 5 1820 4Q1820 7 1817 9Q1815 12 1814 15Q1797 12 1780 13Q1763 15 1746 10Q1737 15 1724 15Q1712 15 1703 8Q1695 12 1686 8Q1677 5 1668 5Q1655 8 1652 5Q1650 3 1647 3Q1642 3 1637 3Q1633 3 1628 5Q1623 12 1619 12Q1616 12 1612 14Q1611 22 1603 29Q1595 36 1590 41Q1593 43 1596 44Q1600 46 1600 50Q1593 60 1592 64Q1592 68 1592 72Q1593 77 1592 81Q1592 86 1588 89Q1598 92 1598 96Q1598 110 1594 122Q1590 134 1590 148Q1598 156 1597 159Q1597 163 1597 173Q1597 184 1598 193Q1600 203 1591 211Q1593 221 1591 230Q1590 240 1590 250Q1590 262 1592 273Q1595 285 1595 297Q1595 304 1592 307Q1590 310 1590 313Q1593 326 1591 329Q1589 333 1588 338Q1586 353 1587 369Q1589 385 1589 401Q1589 412 1585 426Q1582 440 1584 446Q1582 449 1581 453Q1580 457 1576 459Q1582 467 1575 473Q1569 480 1569 488Q1569 497 1572 503Q1576 509 1572 519Q1581 523 1592 526Q1597 531 1598 534Q1599 538 1609 538Q1626 538 1642 535Q1658 533 1675 530Q1679 531 1682 531Q1685 532 1688 534Q1696 530 1703 530Q1710 531 1716 533Q1723 535 1729 537Q1736 540 1743 540Q1751 540 1758 538Q1765 537 1773 537Q1799 537 1825 540Q1852 544 1878 542Q1887 537 1885 533Q1889 535 1892 536Q1896 537 1901 537Q1913 537 1928 536Q1944 536 1955 533Q1961 527 1965 526Q1970 524 1974 522Q1978 521 1983 519Q1987 517 1990 515Q1994 514 1998 512Q2005 502 2000 497Q1996 493 2001 487Z" fill="#072a55" style=""></path></g></g><g transform="matrix(1,0,0,1,-47.875,893.2)"><g transform="matrix(1,0,0,-1,0,0)"><path d="M537 96Q541 74 532 60Q523 47 516 29Q510 31 507 26Q505 22 503 18Q499 15 494 15Q490 16 486 11Q484 15 483 18Q482 21 477 21Q460 21 436 17Q412 14 399 1Q388 2 380 -2Q372 -5 362 -11Q359 -12 358 -9Q357 -5 350 -7Q343 -12 333 -11Q324 -9 316 -9Q305 -9 294 -13Q283 -17 272 -17Q264 -17 257 -14Q251 -11 244 -6Q236 -11 231 -8Q226 -4 219 -4Q206 -7 201 -2Q197 4 188 2Q185 7 180 10Q176 14 171 18L156 18Q144 27 130 33Q117 39 109 53Q106 55 102 56Q99 58 96 60Q95 63 93 64Q92 66 93 70Q92 75 84 79Q80 81 78 84Q77 88 72 88Q70 98 68 111Q66 124 56 129Q56 134 55 139Q55 144 49 145Q52 158 44 170Q46 175 47 181Q48 188 43 193Q42 197 44 199Q47 201 48 204Q46 212 43 220Q40 229 40 238Q40 241 40 243Q41 246 41 248Q36 261 39 265Q43 270 43 273Q43 279 42 284Q41 290 41 295Q41 303 46 311Q51 319 46 326Q51 338 50 343Q50 348 48 351Q50 356 53 358Q57 361 60 364Q64 375 69 386Q74 398 83 406L83 422Q89 424 91 429Q93 435 93 440Q103 447 108 455Q113 464 120 473Q127 482 133 489Q140 497 144 500Q146 505 148 509Q151 513 154 517Q158 521 164 521Q171 521 172 529Q185 531 189 536Q194 541 199 541Q204 541 208 538Q212 536 217 543Q223 539 228 542Q234 545 239 548Q245 543 255 547Q266 551 274 551Q277 551 282 553Q287 556 290 558Q294 553 299 558Q304 563 307 565Q316 561 323 563Q330 565 339 563Q347 561 348 562Q349 563 350 563Q357 562 362 558Q368 555 375 554Q385 552 394 552Q404 552 414 551Q416 548 417 544Q418 541 422 539Q426 537 427 536Q428 535 431 532Q436 526 438 526Q441 526 440 516Q448 518 449 515Q450 513 455 513Q456 509 458 506Q460 503 462 499Q458 490 457 480Q457 470 453 461Q448 458 445 458Q443 458 436 452Q429 449 427 450Q425 451 423 452Q413 449 412 450Q412 452 410 454Q407 458 403 458Q399 458 395 459Q391 459 388 461Q385 463 381 464Q372 472 365 475Q359 479 351 479Q349 479 346 478Q343 478 340 478Q322 479 309 477Q297 476 284 479Q271 476 267 464Q260 462 251 462Q243 462 235 460Q228 459 222 455Q216 451 213 443Q208 444 206 442Q205 440 202 438Q196 437 194 434Q192 431 191 428Q191 426 189 424Q188 422 182 423Q182 417 178 407Q174 397 181 395Q176 394 176 391Q176 389 170 391Q169 381 163 379Q157 377 156 369Q151 354 149 350Q148 347 145 339Q143 334 143 330Q144 326 142 322Q137 320 137 318Q138 316 138 312Q129 301 132 294Q135 287 126 278Q132 274 132 269Q132 264 131 259Q130 255 130 250Q130 245 131 241Q132 238 132 234Q132 231 131 228Q130 225 130 222Q130 217 132 213Q135 209 135 204Q132 191 135 188Q138 186 138 183Q144 171 148 164Q153 157 155 146Q163 139 167 130Q171 121 182 118Q182 115 183 112Q184 110 185 108Q192 106 196 102Q201 99 206 95Q215 87 223 88Q231 89 241 85Q243 82 250 80Q257 78 265 77Q273 76 281 75Q289 75 293 75Q301 75 306 82Q312 78 319 80Q324 80 325 82Q326 85 329 87Q337 83 343 88Q349 93 352 93Q355 93 355 90Q356 88 363 88Q368 88 369 91Q371 95 374 97Q377 97 382 96Q388 95 394 94Q400 94 405 95Q410 96 413 99Q416 97 420 97Q424 98 428 100Q432 103 436 105Q440 107 443 108Q443 114 440 117Q438 120 438 123Q438 128 442 133Q446 138 446 145Q446 150 443 154Q440 158 440 162Q440 166 441 170Q442 174 442 178Q442 188 438 197Q435 206 435 215Q435 217 437 219Q440 222 440 224Q437 230 434 233Q431 237 423 235Q422 239 420 239Q419 240 421 245Q412 251 404 251Q396 251 386 251Q381 251 375 252Q370 254 365 254Q360 254 356 251Q353 249 350 249Q333 251 322 246Q312 241 304 239Q296 244 288 242Q280 241 271 241Q266 241 263 243Q260 246 255 246Q243 247 238 242Q230 245 222 250Q215 255 207 258Q207 264 204 269Q202 275 200 280Q198 285 197 291Q197 297 199 304Q204 306 213 311Q222 316 222 321Q232 329 244 327Q257 325 269 325Q274 325 279 326Q285 328 290 328Q304 328 322 325Q340 323 354 328Q366 335 371 333Q376 332 381 337Q392 332 401 337Q411 342 419 350Q421 350 423 345Q425 340 427 338Q433 340 439 337Q446 334 451 338Q454 338 457 334Q460 330 464 328Q473 324 483 325Q493 327 501 323Q506 321 507 316Q509 312 515 313L518 289Q520 283 522 276Q524 270 525 264Q525 260 523 257Q521 255 519 251Q521 243 525 240Q530 238 535 233Q535 228 531 225Q528 223 527 218Q531 214 531 207Q532 200 532 191Q533 183 534 175Q535 168 539 162Q536 153 537 144Q539 136 540 127Q542 119 542 111Q542 103 537 96ZM817 103Q826 108 834 110Q842 112 852 106Q857 110 859 112Q861 115 866 117Q871 116 877 115Q883 115 889 115Q897 115 905 119Q913 123 922 118Q935 126 952 132Q969 139 977 152Q979 172 984 192Q989 213 981 233Q990 250 988 264Q986 279 986 296Q986 303 987 309Q989 316 989 323Q989 337 984 349Q979 361 979 375Q979 379 980 382Q981 385 982 389Q982 390 979 393Q977 397 977 401Q977 405 978 407Q979 410 979 414Q980 419 978 423Q977 428 977 433Q977 442 981 450Q985 459 984 467Q984 472 984 475Q984 479 986 484Q981 495 978 498Q976 501 977 515Q985 517 989 517Q997 522 1003 524Q1014 531 1017 530Q1020 530 1022 530Q1025 531 1027 533Q1030 536 1036 544Q1037 539 1037 535Q1038 531 1040 527Q1044 525 1046 523Q1049 521 1051 516Q1058 513 1063 501Q1068 489 1071 474Q1074 459 1075 444Q1076 430 1076 423Q1076 415 1072 408Q1068 401 1068 393Q1072 389 1071 386Q1070 384 1068 380Q1073 371 1073 363Q1073 355 1072 347Q1072 339 1072 330Q1073 322 1079 312Q1075 307 1075 300Q1075 296 1075 293Q1076 290 1076 286Q1076 278 1074 271Q1073 264 1073 256Q1073 249 1076 243Q1079 237 1081 231Q1079 223 1076 219Q1073 215 1071 210Q1067 199 1067 187Q1067 176 1067 164Q1067 152 1065 140Q1064 129 1058 119Q1053 111 1049 106Q1046 101 1047 90Q1022 73 1004 45Q990 43 979 37Q968 31 955 26Q946 22 936 20Q927 19 918 15Q913 21 909 19Q905 18 897 18Q892 20 889 18Q887 17 883 15Q880 14 874 12Q869 11 859 11Q856 11 854 8Q852 6 850 4L840 10Q830 5 820 4Q811 4 801 5Q792 7 782 8Q773 10 763 8Q751 12 747 16Q743 21 730 20Q727 23 721 28Q716 33 709 38Q702 44 696 48Q690 53 686 55Q672 63 665 76Q658 90 651 104Q642 117 642 129Q643 142 638 153Q637 156 636 159Q635 162 635 165Q635 170 636 174Q638 179 638 184Q638 186 635 190Q633 195 633 200Q633 203 634 205Q635 208 636 210Q636 215 631 222Q626 230 626 238Q626 243 627 247Q628 251 628 256Q629 261 626 267Q624 273 624 280Q624 284 626 292Q623 296 623 302Q626 311 624 316Q622 321 620 326Q619 331 619 337Q619 343 623 351Q618 364 621 375Q624 386 624 399Q624 403 622 406Q621 409 621 413Q621 424 623 434Q625 444 626 455Q627 460 627 465Q627 471 627 476Q628 495 635 514Q643 533 666 533Q672 533 680 531Q684 526 687 525Q691 524 694 521Q702 513 704 504Q706 496 708 486Q709 483 710 480Q711 478 711 475Q711 466 707 458Q703 450 703 442Q703 434 704 427Q706 421 706 413Q706 399 704 386Q703 373 703 359Q703 351 706 345Q709 340 708 332Q709 325 707 321Q706 317 706 312Q705 307 707 299Q710 292 710 281Q712 278 713 276Q715 274 715 269Q715 265 714 261Q713 258 713 254Q712 237 716 220Q720 204 720 187Q720 182 726 175Q733 169 728 158Q737 155 737 148Q737 141 742 139Q756 123 760 118Q764 113 768 109Q773 106 780 104Q788 103 804 103Q808 105 810 105Q813 106 817 103ZM1664 469Q1652 463 1647 449Q1623 434 1617 410Q1606 408 1601 401Q1596 394 1595 383Q1571 383 1561 362Q1544 353 1538 345Q1532 338 1530 327Q1523 321 1517 314Q1512 308 1510 298Q1501 295 1494 288Q1487 282 1480 275Q1481 270 1482 264Q1483 259 1483 254Q1483 248 1480 242Q1477 236 1477 228Q1477 215 1478 202Q1480 190 1480 177Q1480 174 1479 171Q1478 168 1478 165Q1478 159 1479 155Q1481 151 1475 146Q1477 140 1479 132Q1481 125 1487 121Q1482 113 1486 105Q1490 98 1490 90Q1490 85 1495 84Q1500 84 1504 83Q1508 80 1506 76Q1505 73 1500 73Q1501 68 1502 65Q1503 63 1497 62Q1499 57 1503 51Q1508 45 1508 43Q1508 38 1503 34Q1498 30 1496 25Q1492 16 1487 12Q1482 9 1480 7Q1475 -1 1474 -5Q1473 -9 1470 -11Q1464 -15 1451 -14Q1438 -13 1430 -16Q1426 -8 1418 -5Q1411 -1 1406 5Q1404 18 1401 30Q1399 42 1399 56Q1397 61 1397 66Q1397 72 1395 74Q1394 76 1391 77Q1389 78 1387 79Q1386 80 1386 83Q1386 89 1389 94Q1392 100 1392 106Q1394 116 1391 119Q1389 123 1387 126Q1387 134 1389 142Q1392 150 1392 158Q1392 162 1390 163Q1389 164 1387 167Q1393 179 1390 190Q1388 202 1384 213Q1376 219 1371 223Q1366 228 1356 229Q1353 234 1350 237Q1348 240 1347 246Q1329 251 1317 260L1317 270Q1308 276 1304 285Q1301 294 1293 301Q1286 308 1285 313Q1278 315 1273 319Q1268 323 1262 325Q1262 330 1260 333Q1259 337 1253 337L1253 348Q1240 350 1229 356Q1219 362 1208 367Q1207 369 1203 374Q1199 380 1194 385Q1189 390 1184 394Q1179 398 1178 398Q1174 407 1169 409Q1165 412 1160 417Q1157 420 1153 425Q1149 431 1143 437Q1138 443 1133 447Q1128 451 1124 451Q1124 456 1122 460Q1121 465 1116 467Q1116 476 1114 484Q1112 493 1112 502Q1112 513 1122 522Q1133 531 1144 531Q1149 531 1150 529Q1151 527 1159 531Q1170 531 1181 522Q1193 513 1203 510Q1205 504 1208 501Q1211 498 1210 491Q1218 482 1227 475Q1236 469 1247 463Q1249 462 1248 459Q1248 457 1253 453Q1261 447 1269 438Q1277 430 1287 428Q1288 420 1293 420Q1298 420 1297 410L1308 410Q1313 402 1319 397Q1325 392 1335 390Q1339 382 1345 376Q1352 371 1359 366Q1366 361 1372 355Q1378 349 1382 341L1400 341Q1412 333 1415 336Q1418 340 1420 346Q1435 346 1440 355Q1445 364 1456 369Q1455 378 1459 383Q1464 389 1462 397Q1476 399 1485 411Q1501 423 1514 435Q1527 447 1529 459Q1534 471 1537 472Q1540 474 1542 482Q1550 485 1554 490Q1559 496 1569 497Q1573 506 1574 514Q1579 513 1581 515Q1584 517 1588 517Q1597 522 1603 527Q1609 533 1620 536Q1625 538 1626 541Q1627 544 1630 546Q1636 546 1641 543Q1646 540 1653 543Q1664 535 1671 525Q1679 515 1679 502Q1679 495 1676 490Q1674 486 1671 483Q1669 480 1666 477Q1664 474 1664 469ZM2225 531Q2234 530 2242 532Q2251 535 2260 537Q2274 540 2290 540Q2307 541 2321 541Q2337 541 2352 538Q2367 535 2382 533Q2398 532 2413 528Q2428 524 2443 520Q2452 517 2460 512Q2468 508 2476 503Q2480 491 2477 475Q2475 459 2465 450Q2459 451 2454 450Q2449 450 2444 444Q2441 445 2440 448Q2439 452 2434 453Q2429 455 2424 454Q2420 453 2415 454Q2408 455 2401 456Q2395 458 2388 460Q2386 459 2380 460Q2375 461 2369 462Q2363 463 2358 463Q2353 464 2352 462Q2349 462 2347 466Q2346 470 2341 470Q2330 470 2321 469Q2312 468 2301 470Q2292 468 2287 463Q2282 458 2271 460Q2266 458 2263 455Q2260 452 2258 448Q2247 449 2240 445Q2233 441 2227 436Q2222 431 2217 426Q2213 421 2207 420Q2202 401 2187 392Q2185 384 2186 380Q2181 379 2179 378Q2178 377 2173 378Q2167 357 2152 344L2152 333Q2147 331 2148 327Q2149 323 2141 323Q2145 315 2139 305Q2134 295 2132 286Q2127 281 2127 273Q2128 266 2122 259Q2128 247 2127 233Q2127 219 2127 205Q2127 200 2130 199Q2133 198 2137 196Q2135 188 2137 181Q2139 175 2142 169Q2145 163 2148 157Q2152 151 2152 144Q2160 134 2171 129Q2182 125 2193 122Q2196 120 2197 118Q2199 117 2200 112Q2209 112 2217 109Q2226 106 2236 106Q2248 107 2251 104Q2255 102 2262 102Q2267 102 2268 105Q2270 108 2274 110Q2288 103 2308 100Q2328 97 2342 107Q2346 107 2349 106Q2352 105 2355 105Q2359 105 2361 106Q2363 108 2366 110Q2369 111 2377 112Q2386 113 2395 114Q2405 115 2413 115Q2422 115 2426 115Q2433 118 2437 123Q2441 129 2445 135Q2456 138 2459 133Q2463 129 2472 129Q2477 129 2478 131Q2480 134 2484 135Q2487 130 2490 126Q2494 122 2500 120Q2500 113 2501 106Q2503 99 2509 94Q2506 90 2499 85Q2492 81 2485 76Q2479 71 2473 66Q2468 61 2468 56Q2468 52 2469 50Q2470 49 2468 45Q2465 43 2461 42Q2458 41 2458 36Q2446 37 2436 35Q2426 34 2416 31Q2406 28 2396 25Q2387 23 2376 23Q2374 26 2369 25Q2364 25 2358 23Q2353 22 2347 20Q2342 18 2339 18Q2334 18 2329 19Q2324 21 2319 21Q2311 21 2304 20Q2298 19 2290 19Q2272 19 2269 25Q2266 31 2260 31Q2254 31 2253 27Q2253 24 2249 21Q2238 25 2225 30Q2213 35 2201 29Q2196 36 2188 36Q2180 36 2176 43Q2169 43 2163 44Q2157 46 2150 46Q2150 49 2148 50Q2147 51 2145 51Q2144 52 2143 53Q2142 54 2143 58Q2136 57 2132 58Q2129 60 2126 62Q2123 64 2119 65Q2115 67 2109 66Q2106 77 2092 82Q2089 89 2085 95Q2081 102 2073 104Q2071 116 2066 127Q2061 138 2058 150Q2056 155 2054 156Q2052 157 2048 160Q2051 173 2048 184Q2045 196 2041 208Q2037 218 2038 227Q2040 237 2033 247Q2038 264 2041 286Q2045 308 2058 322Q2060 331 2055 332Q2050 333 2051 337Q2058 345 2064 349Q2070 354 2071 367Q2079 374 2081 384Q2084 395 2090 403Q2095 406 2099 409Q2104 413 2109 416Q2127 438 2145 454Q2144 459 2146 460Q2148 462 2148 467Q2154 469 2154 472Q2155 476 2164 474Q2166 481 2172 487Q2179 494 2186 499Q2194 505 2200 509Q2206 514 2207 519Q2215 518 2217 522Q2220 526 2225 531ZM2721 18L2716 23Q2707 22 2699 24Q2691 27 2682 28Q2680 32 2676 36Q2672 41 2667 43Q2651 50 2648 59Q2645 68 2631 70Q2631 76 2629 78Q2627 81 2624 83Q2622 85 2619 86Q2616 88 2613 92Q2610 103 2606 114Q2602 125 2591 131Q2591 142 2590 145Q2589 149 2587 149Q2586 150 2584 150Q2583 151 2581 156Q2582 167 2576 173Q2571 180 2569 183Q2569 187 2569 190Q2570 194 2572 198Q2566 200 2564 204Q2563 209 2562 214Q2561 219 2560 224Q2559 229 2554 232Q2556 245 2556 258Q2557 272 2549 283Q2558 295 2558 309Q2559 324 2564 338Q2564 343 2561 347Q2559 352 2557 357Q2565 359 2564 368Q2564 377 2564 384Q2568 392 2572 398Q2576 404 2579 409Q2582 415 2584 421Q2586 428 2586 438Q2594 443 2600 450Q2606 457 2612 464Q2618 472 2624 478Q2630 485 2638 490Q2641 495 2644 497Q2648 500 2650 507Q2660 510 2668 516Q2677 522 2685 527Q2699 536 2716 542Q2734 549 2751 551Q2754 554 2758 556Q2762 558 2766 561Q2771 562 2775 561Q2780 561 2783 561Q2786 562 2789 564Q2792 566 2794 573L2800 561Q2807 560 2811 559Q2815 559 2820 566Q2832 563 2844 562Q2856 561 2868 559Q2878 550 2879 547Q2881 545 2883 541Q2891 540 2896 535Q2901 531 2910 531Q2913 523 2919 521Q2926 520 2928 512Q2935 511 2942 507Q2948 495 2958 488Q2969 481 2974 468Q2980 465 2983 460Q2987 456 2990 451Q2994 447 2997 442Q3001 438 3007 436Q3007 431 3005 428Q3003 426 3004 423Q3010 421 3011 416Q3013 411 3014 406Q3016 401 3018 396Q3021 392 3028 391Q3028 382 3029 377Q3030 373 3033 365Q3038 355 3038 345Q3039 336 3041 325Q3041 322 3043 320Q3046 318 3048 316Q3046 308 3048 300Q3050 292 3050 284Q3050 279 3047 277Q3044 276 3044 274Q3045 272 3049 269Q3054 267 3056 265Q3049 263 3047 257Q3046 252 3046 245Q3046 239 3046 232Q3047 225 3046 220Q3045 216 3043 214Q3041 212 3041 208Q3043 197 3041 195Q3039 193 3038 190Q3037 185 3037 181Q3038 177 3038 172Q3038 164 3034 159Q3031 154 3026 148Q3025 143 3027 141Q3030 139 3028 134Q3020 121 3013 108Q3006 96 2999 82Q2994 74 2987 70Q2981 66 2977 55Q2967 53 2956 46Q2946 40 2936 33Q2927 26 2920 20Q2913 14 2912 14Q2905 13 2902 10Q2899 8 2891 8Q2886 9 2884 3Q2882 -3 2873 -5Q2860 -10 2856 -10Q2852 -10 2847 -4Q2840 -4 2834 -7Q2828 -9 2821 -9Q2815 -9 2809 -7Q2803 -4 2797 -4Q2792 -3 2788 -4Q2784 -4 2779 -4Q2774 -4 2766 -2Q2758 1 2753 3Q2742 9 2736 13Q2730 18 2721 18ZM2960 367Q2951 371 2948 376Q2946 382 2943 389Q2941 396 2939 402Q2938 408 2938 411Q2934 417 2929 420Q2924 423 2919 426Q2915 430 2911 434Q2907 438 2906 446Q2898 448 2892 453Q2887 458 2879 460Q2879 465 2877 465Q2875 466 2874 470Q2860 472 2851 477Q2843 482 2832 487Q2827 482 2823 483Q2820 485 2815 485Q2811 485 2807 481Q2803 477 2798 475Q2795 480 2789 480Q2783 481 2778 483Q2774 480 2767 477Q2761 475 2756 473Q2737 465 2721 446Q2709 436 2700 430Q2692 425 2682 421Q2681 412 2676 405Q2671 398 2670 389Q2659 385 2653 371Q2647 357 2645 347Q2651 338 2653 327Q2655 316 2660 306Q2655 301 2651 297Q2647 293 2644 287Q2635 284 2635 272Q2636 261 2640 247Q2644 234 2649 222Q2655 210 2658 207Q2656 204 2654 201Q2652 198 2653 195Q2664 183 2667 163Q2671 159 2675 156Q2679 154 2682 151Q2686 149 2687 145Q2689 141 2689 133Q2694 133 2696 131Q2699 129 2701 126Q2703 124 2705 121Q2707 119 2712 119L2721 109Q2726 106 2730 106Q2734 107 2736 99Q2752 95 2767 89Q2782 83 2797 77Q2805 80 2813 79Q2821 78 2829 80Q2834 80 2836 83Q2839 87 2844 87Q2847 87 2848 83Q2850 80 2857 82Q2859 87 2863 86Q2868 85 2871 87Q2877 90 2879 96Q2882 102 2891 102Q2900 116 2913 126Q2926 137 2935 151L2945 151Q2948 165 2953 180Q2959 196 2957 210Q2962 227 2964 242Q2967 257 2967 271Q2967 276 2964 280Q2962 285 2962 290Q2962 295 2963 300Q2965 305 2965 310Q2965 324 2963 338Q2962 353 2960 367ZM3591 247Q3590 241 3588 235Q3586 230 3586 224Q3585 215 3586 206Q3588 198 3584 189Q3578 186 3576 181Q3575 176 3572 173Q3570 170 3567 166Q3564 163 3562 156Q3556 155 3554 153Q3552 151 3551 149Q3551 147 3550 144Q3549 142 3546 141Q3542 139 3537 136Q3533 134 3528 135Q3524 133 3523 129Q3523 126 3522 122Q3514 121 3506 116Q3498 111 3493 105Q3486 103 3478 101Q3470 99 3467 91Q3463 92 3455 88Q3447 85 3443 82Q3441 80 3439 78Q3437 76 3435 74Q3429 71 3423 67Q3417 64 3411 60Q3406 60 3405 56Q3405 53 3404 49Q3399 51 3389 51Q3382 44 3373 41Q3364 38 3356 33Q3354 33 3351 34Q3349 36 3346 36Q3341 36 3339 34Q3338 32 3335 31Q3327 29 3318 29Q3309 30 3304 23Q3302 22 3299 24Q3296 26 3294 26Q3290 26 3288 23Q3286 21 3283 21Q3276 19 3269 20Q3263 21 3256 21Q3246 21 3237 17Q3228 13 3217 13Q3205 13 3195 15Q3186 18 3174 11Q3167 13 3161 15Q3155 18 3149 20Q3147 30 3142 37Q3137 45 3132 53Q3134 65 3134 76Q3134 88 3134 99Q3134 102 3135 105Q3136 109 3136 112Q3138 123 3136 130Q3134 137 3134 144Q3134 158 3138 165Q3142 173 3142 181Q3142 187 3140 192Q3139 198 3139 204Q3139 215 3140 226Q3142 237 3134 247Q3138 263 3137 272Q3136 282 3134 289Q3132 296 3129 301Q3127 307 3127 315Q3127 325 3128 329Q3130 334 3122 344Q3124 356 3121 358Q3119 361 3119 364Q3122 378 3119 381Q3117 385 3117 388Q3117 391 3118 394Q3119 397 3119 400Q3119 404 3116 407Q3114 411 3114 415Q3114 423 3116 426Q3119 430 3114 440Q3117 454 3114 458Q3112 462 3112 467Q3112 477 3114 486Q3116 496 3117 506Q3121 511 3126 514Q3132 518 3136 524Q3147 524 3153 526Q3160 528 3172 524Q3178 527 3184 530Q3190 534 3197 536Q3202 536 3205 532Q3208 529 3213 527Q3215 525 3218 526Q3221 527 3224 527Q3226 527 3228 524Q3230 521 3235 521Q3238 521 3240 522Q3243 524 3246 524Q3253 519 3254 520Q3256 522 3258 522Q3263 522 3270 516Q3278 510 3289 516Q3300 513 3305 511Q3311 509 3323 509Q3327 509 3329 506Q3332 504 3334 502Q3350 504 3361 496Q3373 489 3386 492Q3395 482 3409 481Q3423 481 3431 472Q3436 470 3438 471Q3440 473 3445 474Q3447 470 3450 469Q3453 469 3457 468Q3469 466 3479 459Q3489 452 3501 450Q3501 446 3503 444Q3506 443 3508 442Q3510 441 3511 438Q3512 436 3511 430Q3520 429 3523 426Q3527 423 3529 419Q3532 415 3534 410Q3536 406 3541 402Q3545 383 3552 374Q3560 366 3561 357Q3565 352 3568 347Q3571 342 3576 337Q3575 317 3583 303Q3591 289 3591 272Q3591 262 3589 260Q3587 258 3591 247ZM3507 284Q3504 289 3500 293Q3496 298 3494 303Q3496 308 3495 312Q3494 317 3494 322Q3486 333 3481 346Q3477 359 3469 369Q3467 372 3462 372Q3457 373 3457 376Q3454 381 3452 386Q3450 391 3448 396Q3434 393 3430 397Q3426 402 3415 408Q3401 409 3386 412Q3371 416 3361 428L3347 428Q3342 436 3332 437Q3322 439 3314 443L3298 445Q3293 445 3290 447Q3288 450 3285 450Q3281 450 3278 448Q3275 447 3272 447Q3270 447 3266 449Q3263 451 3261 452Q3253 455 3246 454Q3239 453 3231 460Q3221 453 3214 451Q3208 449 3201 447Q3202 426 3202 405Q3203 385 3201 365Q3205 360 3207 354Q3209 348 3211 343Q3212 323 3217 303Q3222 284 3223 264Q3224 258 3223 252Q3223 246 3223 240Q3223 232 3225 225Q3228 219 3228 212Q3228 198 3225 185Q3223 172 3223 158Q3223 153 3225 150Q3228 148 3228 145Q3228 128 3223 117Q3230 108 3233 97Q3237 86 3248 80Q3261 81 3269 85Q3278 90 3293 85Q3298 87 3303 90Q3308 93 3314 95Q3322 98 3331 99Q3341 100 3349 105Q3352 107 3354 110Q3357 113 3359 115Q3367 124 3378 128Q3389 132 3400 132Q3399 138 3410 143Q3421 148 3426 150Q3431 158 3440 163Q3449 168 3459 170Q3462 181 3465 184Q3469 188 3473 189Q3477 190 3480 189Q3484 189 3486 193Q3491 201 3492 205Q3493 210 3503 213Q3498 220 3501 223Q3505 227 3507 233Q3509 244 3508 258Q3507 273 3507 284ZM4099 487Q4093 482 4086 472Q4080 462 4074 460Q4072 459 4069 459Q4066 460 4063 460Q4058 460 4056 458Q4054 456 4050 455Q4043 459 4036 460Q4029 461 4022 465Q4016 465 4013 462Q4010 459 4005 459Q4000 459 3995 461Q3991 463 3987 458Q3968 464 3948 466Q3929 469 3910 474Q3902 470 3894 470Q3887 471 3879 469Q3876 468 3873 466Q3870 465 3867 465Q3863 465 3860 466Q3857 467 3853 467Q3847 467 3841 464Q3835 462 3829 462Q3824 462 3821 464Q3818 467 3813 462Q3810 467 3806 464Q3803 462 3800 460Q3784 460 3778 461Q3773 463 3766 462Q3766 455 3766 442Q3766 429 3766 415Q3767 402 3767 390Q3767 379 3766 375Q3769 368 3776 368Q3784 368 3789 368Q3803 362 3817 361Q3832 361 3846 361Q3851 361 3854 362Q3858 363 3863 363Q3867 363 3875 361Q3884 360 3892 359Q3901 359 3907 361Q3914 363 3914 371Q3925 373 3929 367Q3934 361 3939 361Q3944 361 3946 365Q3948 369 3952 371Q3956 371 3957 367Q3958 364 3965 364Q3971 364 3978 368Q3986 373 3994 363Q4001 361 4004 363Q4007 365 4013 366Q4020 354 4029 343Q4038 333 4043 320Q4040 320 4036 317Q4032 314 4029 309Q4026 305 4024 301Q4022 297 4023 294Q4017 289 4010 284Q4004 280 3996 280Q3988 280 3986 283Q3985 286 3980 286Q3975 286 3971 284Q3968 283 3964 283Q3959 283 3953 284Q3948 286 3942 286Q3935 286 3928 283Q3922 281 3915 281Q3910 281 3906 283Q3903 285 3899 286Q3892 287 3886 287Q3880 288 3873 288Q3868 288 3864 285Q3861 283 3856 283Q3851 283 3845 284Q3840 286 3835 286Q3831 286 3828 285Q3825 284 3822 284Q3804 282 3793 280Q3782 279 3771 276Q3772 265 3772 254Q3773 243 3778 233Q3778 230 3775 229Q3773 228 3773 223Q3781 213 3782 201Q3784 190 3783 178Q3782 166 3781 154Q3780 142 3785 130Q3782 122 3780 115Q3779 109 3780 101Q3787 91 3798 91Q3803 91 3807 91Q3811 92 3816 92Q3820 92 3823 91Q3826 90 3830 90Q3842 90 3854 91Q3866 93 3878 93Q3882 93 3885 92Q3889 92 3893 92Q3900 92 3906 93Q3913 95 3920 95Q3925 95 3929 93Q3933 92 3938 92Q3947 92 3955 95Q3964 98 3973 98Q3975 98 3978 97Q3981 97 3983 97Q3988 97 3990 101Q3992 106 3994 107Q3999 108 4004 109Q4009 110 4014 111Q4018 112 4020 108Q4023 105 4024 102Q4033 101 4038 96Q4044 91 4052 90Q4054 85 4057 81Q4060 78 4065 78Q4063 70 4067 61Q4061 59 4056 54Q4052 49 4047 47Q4048 41 4049 35Q4050 30 4049 23Q4047 21 4043 21Q4040 22 4037 22Q4030 22 4028 17Q4027 13 4022 13Q4019 15 4014 15Q4009 15 4004 15Q3999 15 3994 15Q3990 15 3987 17Q3981 17 3977 14Q3973 12 3969 8Q3959 12 3950 9Q3942 6 3934 1Q3930 5 3926 5Q3923 5 3918 4Q3918 7 3915 9Q3913 12 3912 15Q3895 12 3878 13Q3861 15 3844 10Q3835 15 3822 15Q3810 15 3801 8Q3793 12 3784 8Q3775 5 3766 5Q3753 8 3750 5Q3748 3 3745 3Q3740 3 3735 3Q3731 3 3726 5Q3721 12 3717 12Q3714 12 3710 14Q3709 22 3701 29Q3693 36 3688 41Q3691 43 3694 44Q3698 46 3698 50Q3691 60 3690 64Q3690 68 3690 72Q3691 77 3690 81Q3690 86 3686 89Q3696 92 3696 96Q3696 110 3692 122Q3688 134 3688 148Q3696 156 3695 159Q3695 163 3695 173Q3695 184 3696 193Q3698 203 3689 211Q3691 221 3689 230Q3688 240 3688 250Q3688 262 3690 273Q3693 285 3693 297Q3693 304 3690 307Q3688 310 3688 313Q3691 326 3689 329Q3687 333 3686 338Q3684 353 3685 369Q3687 385 3687 401Q3687 412 3683 426Q3680 440 3682 446Q3680 449 3679 453Q3678 457 3674 459Q3680 467 3673 473Q3667 480 3667 488Q3667 497 3670 503Q3674 509 3670 519Q3679 523 3690 526Q3695 531 3696 534Q3697 538 3707 538Q3724 538 3740 535Q3756 533 3773 530Q3777 531 3780 531Q3783 532 3786 534Q3794 530 3801 530Q3808 531 3814 533Q3821 535 3827 537Q3834 540 3841 540Q3849 540 3856 538Q3863 537 3871 537Q3897 537 3923 540Q3950 544 3976 542Q3985 537 3983 533Q3987 535 3990 536Q3994 537 3999 537Q4011 537 4026 536Q4042 536 4053 533Q4059 527 4063 526Q4068 524 4072 522Q4076 521 4081 519Q4085 517 4088 515Q4092 514 4096 512Q4103 502 4098 497Q4094 493 4099 487ZM4741 51Q4737 37 4740 21Q4735 13 4726 7Q4718 1 4710 -4Q4700 -3 4690 0Q4681 4 4671 6Q4668 13 4662 17Q4657 21 4654 27Q4651 32 4650 41Q4650 50 4649 59Q4648 68 4645 75Q4643 82 4637 84Q4638 94 4627 108Q4616 122 4611 132Q4603 137 4597 144Q4591 152 4586 160Q4576 158 4573 163Q4571 168 4564 166Q4564 169 4562 171Q4561 174 4560 176Q4551 184 4541 190Q4532 196 4524 204Q4519 204 4514 202Q4510 201 4507 207Q4502 207 4498 204Q4495 202 4492 202Q4489 202 4486 203Q4484 204 4481 204Q4470 204 4458 203Q4447 203 4436 199Q4434 201 4431 204Q4428 207 4426 207Q4424 207 4413 201Q4403 196 4395 195Q4381 193 4362 192Q4343 191 4333 178Q4328 180 4322 179Q4316 179 4315 172Q4309 173 4306 174Q4304 176 4298 174Q4293 164 4298 156Q4303 148 4305 139Q4306 131 4306 115Q4306 99 4314 94Q4311 87 4310 80Q4309 73 4309 65Q4309 62 4310 59Q4312 57 4312 53Q4312 48 4309 44Q4307 41 4308 36Q4301 34 4300 27Q4299 21 4299 16Q4291 16 4285 13Q4280 11 4274 8Q4269 5 4263 4Q4257 3 4249 6Q4240 19 4225 30Q4226 34 4224 38Q4223 43 4218 43Q4219 54 4216 59Q4213 64 4208 73Q4208 79 4211 84Q4214 90 4216 95Q4214 105 4213 116Q4212 127 4206 135Q4206 139 4207 141Q4208 144 4208 147Q4208 154 4205 162Q4202 170 4200 178Q4198 186 4197 193Q4197 200 4202 204Q4194 212 4193 218Q4193 225 4191 235Q4189 240 4187 243Q4185 247 4183 252Q4181 262 4182 272Q4184 283 4179 293Q4178 295 4177 297Q4176 300 4176 303Q4176 308 4177 312Q4178 316 4178 321Q4178 342 4177 363Q4176 384 4176 405Q4176 409 4176 412Q4177 415 4177 418Q4177 423 4174 428Q4178 439 4174 449Q4170 460 4164 470Q4166 475 4165 481Q4165 487 4165 492Q4165 503 4170 506Q4176 509 4176 517Q4188 518 4195 532Q4202 532 4206 535Q4211 539 4217 541Q4223 535 4232 535Q4239 535 4245 537Q4251 540 4258 541Q4267 543 4276 542Q4285 541 4295 541Q4300 541 4304 542Q4309 544 4314 544Q4317 544 4320 542Q4323 541 4327 541Q4341 541 4354 545Q4368 549 4381 541Q4389 543 4393 544Q4398 546 4406 541Q4411 543 4415 543Q4419 544 4424 546Q4431 546 4437 543Q4443 541 4450 541Q4455 541 4459 542Q4463 544 4468 544Q4479 544 4488 540Q4498 536 4510 539Q4518 533 4529 525Q4541 518 4551 528Q4554 526 4556 524Q4559 522 4560 517Q4567 515 4569 517Q4572 519 4577 519Q4582 514 4584 514Q4586 514 4593 514Q4602 509 4604 509Q4607 504 4611 503Q4616 502 4617 497Q4634 495 4643 487Q4653 479 4659 464Q4661 459 4671 459Q4670 443 4676 437Q4683 432 4696 426Q4695 418 4694 410Q4694 403 4694 395Q4696 379 4690 372Q4684 366 4686 354Q4683 353 4676 353Q4676 346 4679 342Q4663 336 4654 322Q4645 308 4632 300L4632 290Q4630 288 4627 288Q4624 289 4622 289Q4622 283 4619 278Q4616 273 4616 268Q4609 264 4602 263Q4603 257 4606 250Q4610 244 4617 242Q4619 240 4620 237Q4621 234 4623 232Q4625 230 4627 229Q4630 229 4632 227Q4637 223 4639 218Q4642 213 4647 210Q4656 203 4666 198Q4676 194 4684 183Q4688 171 4694 164Q4700 158 4707 150Q4714 143 4721 136Q4728 130 4731 128Q4731 122 4730 120Q4730 119 4736 115Q4737 109 4736 99Q4736 90 4735 80Q4735 70 4736 62Q4737 54 4741 51ZM4586 418Q4581 418 4575 419Q4570 421 4564 420Q4564 421 4560 424Q4556 427 4551 430Q4546 434 4541 437Q4537 440 4536 440Q4532 441 4528 440Q4524 440 4520 440Q4511 440 4505 445Q4499 450 4491 452Q4489 453 4486 452Q4483 452 4481 452Q4477 452 4474 454Q4471 457 4467 457Q4463 457 4460 456Q4457 455 4453 455Q4448 455 4442 458Q4437 461 4431 458Q4423 466 4411 465Q4400 465 4389 467Q4384 468 4378 470Q4372 472 4367 472Q4363 472 4360 469Q4357 467 4354 467Q4351 467 4348 468Q4345 470 4342 470Q4328 470 4316 464Q4305 459 4289 465Q4277 454 4260 444Q4261 417 4260 390Q4259 386 4258 382Q4257 378 4257 374Q4257 371 4260 368Q4263 366 4265 364Q4260 359 4259 354Q4259 349 4260 343Q4261 338 4263 333Q4265 328 4265 323Q4262 320 4261 311Q4261 302 4263 291Q4265 281 4268 271Q4272 262 4277 258Q4288 265 4298 263Q4309 261 4320 266Q4324 268 4327 269Q4331 271 4335 271Q4341 271 4346 269Q4352 268 4358 268Q4366 268 4374 268Q4382 269 4390 269Q4401 277 4413 277Q4426 277 4439 279Q4451 281 4461 285Q4471 290 4485 288Q4494 298 4497 303Q4500 308 4505 311Q4511 309 4514 310Q4517 311 4519 312Q4522 314 4526 315Q4530 316 4537 315Q4540 325 4549 327Q4558 330 4562 340Q4567 341 4570 341Q4573 341 4575 345Q4580 360 4585 365Q4591 370 4594 374Q4597 379 4596 387Q4595 395 4586 418Z" fill="#072a55" style=""></path></g></g><g transform="matrix(1.9181,0,0,1.9181,-4781.3104,854.5744)"><g transform="matrix(1,0,0,-1,0,0)"><path d="M1017 649Q1013 647 1010 644Q1007 642 1004 640Q1004 632 1002 625Q1000 619 997 612Q995 606 994 600Q994 594 997 588Q991 586 985 580Q980 574 976 569Q972 565 971 560Q970 555 967 551Q966 549 966 546Q967 543 967 541Q967 535 963 531Q959 527 959 516Q959 511 951 504Q944 497 945 488Q942 487 940 484Q938 481 935 480Q936 475 934 473Q932 471 932 468Q930 458 925 452Q920 446 913 443Q913 432 906 426Q899 421 898 410Q895 408 892 406Q890 405 887 404Q888 398 886 394Q885 390 885 384Q879 380 878 372Q877 364 870 361Q870 356 867 352Q865 348 867 343Q864 342 859 335Q855 328 851 320Q848 312 846 304Q844 296 844 293Q844 291 840 290Q837 289 835 287Q837 281 835 274Q833 268 830 261Q827 255 825 248Q823 242 826 235Q817 220 808 210Q799 201 800 181Q798 180 794 175Q790 170 790 168Q792 155 788 153Q784 152 789 146Q787 142 783 135Q779 128 774 121Q769 114 765 107Q762 101 762 98Q762 96 763 93Q765 90 766 88Q759 87 760 78Q762 70 757 68Q759 63 757 59Q755 55 759 51Q754 45 748 40Q749 34 746 28Q743 23 739 17Q735 11 730 6Q726 1 724 1Q718 -1 713 1Q708 4 703 8Q699 12 694 16Q690 21 685 23Q677 37 672 43Q667 50 657 51Q659 58 655 60Q651 63 649 68Q643 78 638 87Q634 96 623 101Q621 112 613 121Q605 130 601 144Q600 147 595 146Q591 145 588 146Q587 157 582 164Q577 171 575 181Q572 183 568 184Q565 185 562 187Q564 196 557 201Q551 207 549 211Q543 224 536 226Q538 234 534 236Q530 239 527 244Q525 247 525 250Q525 254 523 257Q516 268 512 277Q509 286 501 285Q501 295 499 295Q498 295 497 296Q495 298 492 308Q489 318 486 322Q476 310 471 307Q466 305 466 298Q466 291 463 288Q460 285 457 281Q455 277 452 274Q450 271 445 270Q444 265 442 260Q441 256 436 254Q437 249 436 246Q435 244 434 239Q427 231 425 229Q423 227 420 225Q418 224 417 222Q416 221 419 219Q419 215 413 212Q408 210 410 200Q404 199 402 192Q401 186 393 187Q398 183 393 180Q389 178 389 175Q386 168 383 162Q380 157 374 155Q373 152 375 150Q377 149 376 144Q371 143 369 139Q368 135 363 135Q365 129 363 122Q361 120 359 118Q357 116 354 116Q354 111 352 107Q350 104 352 99Q346 99 346 94Q347 89 345 86Q343 83 341 81Q339 80 337 77Q335 74 335 70Q336 67 335 64L324 42Q323 40 323 37Q323 34 322 31Q319 26 315 23Q311 21 309 16Q306 15 303 16Q300 18 297 18Q295 19 294 17Q293 16 293 10Q285 8 280 1Q275 -6 267 -8Q259 -1 252 6Q246 13 237 18Q234 27 231 36Q229 45 224 53Q225 70 221 82Q218 94 205 105Q203 113 201 123Q199 134 189 138Q192 144 191 149Q190 154 187 158Q185 163 183 168Q182 173 185 179Q177 185 170 194Q166 199 165 206Q165 214 157 218Q155 229 150 239Q145 250 142 261Q140 264 138 267Q136 270 131 270Q131 279 127 287Q124 295 124 304Q119 313 111 324Q106 332 104 343Q102 354 94 361Q94 374 85 382Q81 394 79 400Q77 406 75 413Q69 419 69 420Q69 421 68 423Q66 426 63 427Q61 429 59 432Q57 436 58 440Q60 445 55 447Q55 469 38 484Q38 500 29 508Q29 515 27 519Q25 524 22 528Q20 532 18 536Q16 540 16 547Q9 559 9 565Q9 571 1 573Q5 582 0 587Q-4 592 -6 599Q-9 610 -9 617Q-8 625 -16 636Q-23 657 -30 668Q-36 680 -36 694Q-36 713 -24 718Q-12 724 4 724Q13 724 19 720Q26 716 29 716Q31 713 32 709Q34 706 36 703Q38 700 40 698Q42 697 44 694Q48 689 50 682Q53 676 59 673Q61 665 61 656Q61 647 68 642L72 629Q71 618 77 610Q83 602 85 597Q89 590 91 583Q94 576 96 569Q100 567 102 563Q104 559 109 558Q111 535 122 519Q123 513 123 506Q123 500 127 495Q132 491 132 487Q132 484 133 482Q141 470 142 463Q143 457 146 452Q148 449 150 447Q153 446 155 443Q159 430 163 419Q167 408 172 408Q175 380 194 363Q190 356 195 349Q200 343 205 339Q204 331 206 327Q209 324 215 319Q213 315 214 313Q215 311 217 309Q219 307 221 305Q224 304 224 301Q224 289 224 290Q225 292 228 289Q230 288 230 280Q231 272 233 270Q235 265 237 261Q239 257 241 252Q248 237 253 227Q258 217 254 207Q263 196 268 182Q274 169 283 157Q294 172 299 181Q304 190 306 200Q312 201 313 206Q314 211 319 213Q320 221 323 226Q327 232 331 237Q336 243 339 248Q343 254 345 261Q349 263 351 265Q354 268 358 270Q359 281 365 285Q371 290 376 298L376 317Q387 318 389 327Q392 337 389 345Q400 350 403 358Q406 367 406 378Q406 382 410 384Q415 386 417 389Q415 398 423 397Q424 407 429 413Q434 420 434 428Q434 440 426 451Q419 462 415 473Q412 480 404 480Q405 486 401 486Q398 487 395 491Q397 498 394 499Q391 501 389 506Q387 511 386 515Q386 520 384 525Q378 531 378 534Q379 537 378 540Q376 545 372 547Q369 549 367 553Q365 557 365 561Q365 565 363 569Q360 574 357 576Q354 579 354 586Q345 592 345 594Q346 597 346 599Q346 604 343 604Q341 605 339 608Q341 618 337 619Q333 620 335 625Q331 627 327 627Q323 628 319 629Q321 636 320 639Q319 642 315 647Q317 652 320 657Q323 663 328 666Q326 674 329 675Q333 676 335 681Q340 683 344 682Q349 682 354 683Q359 685 362 687Q366 690 371 690Q383 690 391 679Q400 669 410 664Q412 659 414 654Q416 649 417 644Q422 638 427 630Q432 622 430 614Q435 606 440 602Q446 599 445 588Q450 586 451 582Q452 578 458 579Q458 575 455 574Q453 573 452 571Q454 566 458 564Q462 562 467 560Q466 551 468 546Q471 541 475 536Q480 531 480 523Q480 516 488 510Q493 511 496 516Q499 521 501 525Q508 535 508 540Q509 546 510 551Q514 552 515 555Q517 559 518 563Q519 567 520 570Q522 573 527 573Q526 578 527 580Q529 582 529 586Q547 597 549 621Q552 620 553 623Q555 627 558 629Q563 642 571 648Q579 654 584 657Q587 665 591 672Q596 679 601 686Q616 689 628 691Q640 693 655 690Q656 685 659 680Q662 675 664 670Q666 662 665 656Q665 651 670 644Q670 642 668 639Q666 636 670 634Q666 624 660 618Q655 612 655 601Q647 597 642 594Q638 592 640 582Q636 582 634 580Q633 578 629 579Q627 572 624 569Q621 566 623 558Q615 551 616 548Q617 546 617 541Q613 536 605 536Q605 532 603 530Q602 528 600 526Q599 525 597 523Q596 521 597 517Q593 515 587 506Q581 497 579 497Q584 488 581 488Q579 488 577 486Q573 484 571 480Q569 476 564 475Q561 450 540 432Q543 424 545 414Q547 405 558 404Q554 397 556 388Q559 379 566 376Q564 368 567 365Q571 362 573 356Q574 354 574 349Q574 344 579 345Q576 337 578 331Q581 325 584 319Q588 314 592 308Q596 303 597 296Q599 292 601 288Q604 285 610 285Q609 280 613 277Q618 274 620 270Q624 263 625 255Q626 247 638 246Q639 235 645 229Q652 224 652 221Q656 206 662 200Q669 195 672 187Q681 188 688 183Q688 179 686 171Q684 164 691 164Q694 164 696 168Q699 173 703 174Q704 183 708 190Q712 197 716 203Q720 210 723 217Q727 225 727 235Q731 236 731 240Q731 244 735 246Q737 251 734 252Q732 254 733 259Q738 265 741 272Q745 279 753 283Q752 294 756 299Q760 304 761 313Q770 336 783 352Q783 365 784 366Q786 367 787 369Q789 373 788 376Q787 380 789 384Q791 389 794 392Q798 395 800 400Q802 404 803 408Q804 413 809 415Q810 419 810 420Q810 421 809 426Q812 427 814 428Q817 430 820 432Q821 442 824 449Q828 457 832 464Q837 471 840 478Q844 486 844 497Q850 499 854 504Q858 510 860 516Q863 522 866 528Q869 534 874 538Q873 549 878 554Q883 559 883 569Q889 573 889 575Q889 577 891 577Q891 587 896 599Q900 615 913 625Q910 629 910 632Q911 636 913 639Q915 643 916 647Q918 651 917 657Q921 658 922 661Q923 664 926 666Q926 677 930 681Q934 686 939 694Q940 696 939 700Q939 705 941 707Q946 716 956 719Q966 723 977 723Q988 723 999 720Q1010 717 1017 712Q1019 700 1022 689Q1025 678 1025 666Q1025 661 1020 659Q1015 658 1017 649ZM1129 317Q1130 315 1130 309Q1131 304 1131 298Q1132 292 1131 286Q1131 281 1130 280Q1132 276 1135 273Q1139 270 1141 266Q1139 261 1141 256Q1143 252 1143 247Q1140 243 1141 241Q1143 239 1144 237Q1151 226 1150 220Q1150 215 1154 207Q1160 191 1162 187Q1164 184 1170 176L1170 165Q1174 160 1177 154Q1180 148 1183 143Q1188 138 1193 134Q1198 130 1197 122Q1202 116 1208 110Q1215 105 1220 98Q1231 98 1238 88L1249 88Q1257 80 1267 77Q1277 74 1288 72Q1286 64 1286 63Q1287 63 1287 62Q1301 67 1309 61Q1318 55 1329 55Q1341 58 1343 57Q1345 56 1347 55Q1351 55 1355 57Q1359 60 1363 60Q1366 60 1368 59Q1371 58 1373 58Q1381 57 1397 61Q1413 66 1419 71Q1430 67 1435 69Q1441 72 1450 73Q1456 78 1462 81Q1468 84 1475 88Q1478 89 1479 91Q1481 94 1484 96Q1491 97 1497 101Q1503 106 1509 109L1518 118Q1522 118 1526 123Q1530 129 1534 136Q1538 144 1541 151Q1545 158 1548 161L1548 176Q1556 177 1558 181Q1561 186 1568 190Q1567 195 1569 198Q1572 201 1570 206Q1572 209 1572 211Q1573 214 1575 216Q1582 227 1575 241Q1568 256 1561 263Q1556 264 1552 263Q1548 263 1543 261Q1534 266 1524 266Q1514 267 1505 272Q1494 272 1489 272Q1484 272 1475 278Q1459 278 1449 276Q1440 275 1432 280Q1427 279 1424 275Q1422 272 1414 272Q1404 278 1392 276Q1380 274 1369 272Q1364 269 1362 269Q1361 269 1362 262Q1356 264 1350 266Q1344 268 1337 268Q1333 268 1329 267Q1325 266 1320 266Q1312 266 1304 269Q1297 273 1289 274Q1284 288 1279 298Q1275 308 1275 324Q1279 325 1280 327Q1282 329 1287 329Q1290 337 1297 339Q1305 341 1310 346Q1316 346 1322 345Q1328 344 1334 344Q1344 344 1353 348Q1363 353 1372 350Q1376 352 1380 353Q1384 355 1387 357Q1392 356 1403 355Q1414 355 1418 357L1429 357Q1433 358 1436 359Q1440 361 1444 361Q1454 361 1465 358Q1476 355 1487 353Q1499 351 1509 351Q1519 352 1527 359Q1533 357 1539 356Q1546 355 1553 355Q1561 355 1568 361Q1576 367 1587 361Q1598 366 1613 365Q1628 365 1640 363Q1646 358 1649 353Q1653 348 1661 345Q1662 340 1662 335Q1663 331 1666 326Q1664 322 1662 318Q1661 315 1659 311Q1664 297 1669 284Q1674 271 1670 255Q1672 249 1675 243Q1678 238 1680 231Q1675 219 1666 211Q1666 194 1661 178Q1656 162 1655 145Q1650 145 1648 141Q1646 138 1645 134Q1644 131 1642 127Q1640 124 1635 124Q1637 121 1637 118Q1638 115 1634 113Q1632 108 1628 106Q1625 105 1621 103Q1621 96 1615 91Q1609 86 1607 79Q1596 77 1595 76Q1594 75 1591 73L1591 62Q1583 60 1576 56Q1570 52 1569 42Q1561 42 1558 42Q1555 42 1553 41Q1552 40 1550 37Q1549 34 1545 29Q1537 25 1528 23Q1519 21 1517 10Q1507 8 1497 6Q1487 4 1479 -3L1468 -3Q1455 -13 1443 -18Q1436 -21 1429 -23Q1422 -24 1416 -29Q1410 -29 1407 -22Q1398 -21 1396 -20Q1394 -19 1393 -19Q1392 -19 1390 -20Q1389 -21 1385 -21Q1376 -18 1372 -22Q1364 -25 1356 -23Q1349 -20 1344 -28Q1328 -20 1311 -21Q1295 -22 1278 -23Q1273 -14 1265 -11Q1257 -8 1248 -8Q1248 -3 1245 -1Q1243 1 1239 2Q1236 3 1232 4Q1229 6 1228 10Q1215 12 1203 15Q1192 18 1184 29Q1174 36 1171 36Q1166 38 1163 40Q1161 43 1159 45Q1157 48 1153 49Q1150 51 1143 50Q1141 55 1137 59Q1134 63 1132 68Q1125 70 1125 71Q1125 73 1123 75Q1121 77 1117 78Q1113 80 1111 81Q1109 89 1103 94Q1097 100 1097 109Q1095 111 1092 111Q1089 112 1087 114Q1089 119 1087 120Q1086 122 1080 124Q1082 133 1080 140Q1079 148 1076 155Q1073 162 1069 169Q1066 177 1065 185Q1063 189 1062 191Q1062 193 1056 192Q1055 197 1056 198Q1057 199 1059 203Q1059 206 1055 213Q1052 220 1049 222Q1049 233 1046 244Q1044 255 1036 263Q1038 274 1037 283Q1037 292 1031 302Q1033 307 1035 314Q1038 322 1038 327Q1037 349 1037 364Q1037 380 1043 394Q1038 404 1039 409Q1041 415 1042 420Q1043 426 1042 431Q1041 436 1034 439Q1033 445 1034 446Q1036 447 1040 450Q1040 473 1047 488Q1055 503 1052 518Q1055 528 1058 531Q1062 535 1060 547Q1069 550 1072 554Q1076 559 1083 564Q1084 573 1088 580Q1092 588 1101 591Q1101 599 1104 603Q1108 608 1108 616Q1114 626 1116 629Q1118 632 1117 639Q1121 642 1127 647Q1133 653 1138 659Q1144 666 1148 672Q1153 679 1153 684Q1160 683 1161 685Q1163 688 1168 688Q1170 690 1169 693Q1169 696 1169 698Q1191 704 1204 720Q1215 720 1220 723Q1226 726 1234 731Q1246 728 1254 732Q1262 737 1273 737Q1280 737 1286 735Q1293 734 1300 734Q1307 734 1314 738Q1320 735 1329 735Q1338 735 1346 736Q1355 737 1362 736Q1370 736 1375 731Q1380 733 1382 735Q1384 737 1389 737Q1397 734 1406 732Q1416 730 1423 723Q1430 725 1436 725Q1442 726 1450 722Q1455 722 1456 724Q1458 727 1462 729Q1475 723 1477 723Q1480 724 1484 722Q1488 720 1490 716Q1493 713 1496 711Q1499 709 1504 705Q1510 702 1517 699Q1524 696 1530 694Q1537 692 1540 693Q1544 687 1544 682Q1552 683 1555 680Q1559 677 1562 673Q1565 670 1569 667Q1573 664 1582 665Q1584 654 1589 648Q1594 642 1605 640Q1603 634 1607 633Q1612 632 1610 625Q1613 618 1620 615Q1627 613 1628 602Q1632 601 1635 600Q1639 599 1644 597Q1642 586 1638 579Q1635 573 1639 562Q1633 557 1631 552Q1629 547 1618 547Q1615 545 1614 543Q1613 541 1609 539Q1600 541 1594 540Q1588 539 1580 534Q1572 536 1564 540Q1557 544 1555 552Q1544 557 1537 566Q1530 575 1520 581Q1519 588 1517 589Q1516 591 1516 594Q1508 600 1506 605Q1499 605 1496 608Q1494 611 1486 609Q1484 614 1480 616Q1476 619 1474 623Q1465 627 1456 629Q1447 632 1439 638Q1432 640 1424 641Q1417 642 1412 647Q1410 647 1407 645Q1405 644 1400 644Q1395 649 1386 651Q1378 653 1373 659Q1362 660 1352 657Q1343 655 1332 655Q1324 655 1318 659Q1312 664 1305 664Q1300 664 1296 662Q1293 661 1289 661Q1285 661 1282 661Q1279 662 1276 662Q1273 662 1269 662Q1266 662 1263 661Q1260 659 1260 651Q1247 646 1240 636Q1234 627 1230 614Q1220 613 1217 607Q1214 601 1206 598Q1207 591 1203 588Q1200 586 1201 579Q1196 574 1190 569Q1185 564 1179 559Q1180 554 1177 551Q1175 548 1177 542Q1170 538 1165 532Q1160 527 1152 524Q1155 513 1145 508Q1144 497 1144 487Q1145 478 1143 468Q1141 460 1138 453Q1135 447 1136 439Q1138 432 1136 430Q1135 429 1141 426Q1139 423 1137 420Q1136 418 1134 414Q1134 395 1136 382Q1139 369 1131 351Q1131 348 1133 345Q1136 343 1136 340Q1136 337 1134 335Q1133 333 1131 330Q1132 325 1134 324Q1136 323 1129 317ZM2245 150Q2250 157 2249 159Q2248 161 2248 162L2260 162Q2262 166 2262 167Q2262 169 2262 169Q2262 170 2263 171Q2265 172 2270 174Q2272 177 2275 180Q2278 184 2280 187Q2290 191 2300 190Q2310 189 2320 187Q2327 168 2327 159Q2328 151 2326 145Q2324 140 2320 134Q2317 128 2317 115Q2317 107 2316 104Q2310 99 2306 96Q2302 94 2301 85Q2295 85 2292 83Q2289 81 2286 78Q2284 75 2281 72Q2278 70 2272 70Q2267 68 2264 63Q2262 59 2260 55Q2255 55 2251 52Q2247 50 2242 49Q2235 42 2233 41Q2231 40 2229 40Q2223 38 2220 32Q2218 27 2212 25Q2200 21 2185 21Q2171 21 2163 10Q2147 8 2132 3Q2118 -1 2103 -6Q2096 0 2084 -1Q2073 -2 2065 -2Q2058 -2 2053 3Q2049 2 2042 0Q2035 -1 2028 -1Q2021 -1 2015 1Q2009 4 2007 10Q2005 9 2002 8Q1999 7 1997 6Q1975 11 1954 17Q1934 23 1914 34L1896 34Q1893 40 1886 42Q1880 44 1878 51Q1874 53 1870 54Q1867 55 1862 56Q1853 64 1850 68Q1848 73 1834 72Q1836 81 1834 82Q1832 84 1830 86Q1824 91 1825 95Q1826 99 1818 101Q1818 104 1817 106Q1816 108 1816 111Q1814 113 1810 115Q1807 117 1805 119Q1803 130 1800 133Q1797 145 1795 147Q1794 150 1794 154Q1792 157 1791 159Q1790 162 1786 164Q1784 176 1782 190Q1780 204 1773 214Q1775 228 1770 242Q1766 257 1766 271Q1766 275 1767 278Q1768 281 1768 285Q1768 294 1765 303Q1762 312 1762 320Q1762 329 1766 337Q1770 345 1762 354Q1766 365 1764 367Q1762 369 1762 372Q1762 377 1764 380Q1766 384 1766 389Q1764 409 1768 419Q1772 429 1770 442Q1771 443 1773 446Q1775 450 1777 454Q1780 459 1781 463Q1783 468 1784 470Q1784 472 1782 474Q1781 477 1781 480Q1781 482 1783 484Q1785 486 1786 489Q1787 492 1785 497Q1784 502 1790 503Q1789 517 1795 529Q1802 541 1798 554Q1804 558 1807 562Q1810 566 1809 574Q1817 578 1821 585Q1825 593 1827 602Q1838 607 1840 617Q1843 627 1854 632Q1859 641 1861 643Q1864 645 1866 649Q1871 656 1878 658Q1886 661 1889 666Q1904 678 1907 685Q1910 692 1920 696Q1928 699 1931 701Q1934 703 1939 710L1953 710Q1960 713 1968 719Q1974 718 1979 719Q1984 720 1989 725Q2003 725 2018 730Q2034 735 2048 728Q2054 731 2062 731Q2071 731 2080 730Q2089 729 2098 728Q2107 728 2115 730Q2121 725 2129 724Q2138 723 2146 726Q2149 719 2155 719Q2161 720 2165 715Q2170 715 2173 714Q2176 713 2180 712Q2182 709 2184 705Q2187 702 2189 698Q2200 697 2209 690Q2218 683 2220 670Q2223 668 2226 665Q2230 663 2231 659Q2238 659 2241 656Q2244 653 2247 648Q2256 646 2262 641Q2269 637 2276 631Q2276 625 2277 618Q2279 612 2271 609L2272 599Q2270 596 2268 593Q2267 591 2265 588Q2260 580 2257 572Q2254 564 2242 564Q2237 564 2232 565Q2228 567 2223 567Q2216 573 2214 578Q2213 583 2202 582Q2202 593 2198 596Q2194 600 2192 609Q2185 611 2181 616Q2178 621 2173 626Q2164 628 2159 632Q2154 636 2143 636Q2126 645 2113 646Q2100 647 2086 649Q2080 648 2077 645Q2075 642 2068 647Q2066 647 2062 644Q2059 641 2055 648Q2044 643 2035 649Q2033 647 2031 644Q2030 642 2024 643Q2010 644 1996 642Q1982 640 1974 626Q1966 624 1960 617Q1954 611 1946 608Q1944 607 1942 604Q1941 602 1940 600L1930 600Q1925 596 1923 589Q1922 583 1915 579Q1916 571 1910 566Q1905 561 1897 559Q1895 554 1892 548Q1890 543 1885 540Q1889 535 1887 532Q1885 530 1880 528Q1880 517 1879 514Q1878 512 1871 503Q1873 500 1872 496Q1871 493 1869 490Q1871 485 1869 484Q1867 484 1874 480Q1866 472 1865 460Q1864 449 1862 438Q1861 431 1859 427Q1858 423 1856 420Q1855 417 1854 412Q1854 408 1855 399Q1852 397 1851 394Q1851 392 1849 389Q1851 381 1850 374Q1849 367 1849 359Q1849 349 1850 339Q1851 329 1851 319Q1851 316 1852 313Q1853 311 1853 308Q1848 295 1849 289Q1851 284 1852 280Q1854 272 1854 264Q1854 257 1856 249Q1857 244 1862 239Q1857 231 1860 226Q1864 221 1864 213Q1866 208 1866 205Q1866 202 1865 200Q1871 192 1874 189Q1877 186 1879 176Q1885 167 1885 163Q1885 159 1892 157Q1892 146 1894 142Q1896 138 1900 135Q1904 133 1908 130Q1913 128 1916 121Q1932 121 1939 114Q1947 107 1961 106Q1964 101 1968 99Q1973 97 1976 93Q1984 91 1991 91Q1999 92 2004 86Q2007 86 2008 88Q2009 90 2016 88Q2016 81 2027 82Q2038 84 2040 85Q2053 78 2065 75Q2077 73 2089 73Q2097 73 2105 75Q2114 77 2123 77Q2135 83 2141 83Q2147 84 2152 86Q2161 89 2169 94Q2177 99 2186 101Q2189 105 2194 107Q2199 110 2203 113Q2208 116 2211 119Q2215 122 2215 127Q2220 128 2223 131Q2227 134 2230 138Q2233 142 2236 145Q2240 149 2245 150Z" fill="#072a55" style=""></path></g></g></g></svg>